<svg width="1910" height="326" viewBox="0 0 1910 326" fill="none" xmlns="http://www.w3.org/2000/svg">
<path d="M4 181.063C27.6976 181.337 45.7854 191.059 67.9946 191.059C83.2222 191.059 99.5948 172.502 105.469 165.848C117.003 152.784 121.117 136.188 127.761 121.981C132.983 110.816 137.21 141.758 137.37 142.859C142.497 178.225 128.724 211.305 125.455 246.254C124.798 253.277 125.071 260.325 125.071 267.355C125.071 271.461 138.672 246.943 139.676 245.255C164.905 202.841 184.765 158.982 213.472 117.316C222.924 103.597 233.558 90.1362 244.028 76.6691C248.52 70.8905 252.929 62.2671 261.323 57.7893C275.168 50.4038 285.929 93.9837 286.114 95.3268C292.974 145.097 292.055 194.77 301.488 244.588C305.02 263.241 308.9 281.857 314.556 300.339C316.099 305.379 317.695 320.083 320.898 305.892C333.211 251.341 340.148 196.445 351.838 141.86C359.823 104.576 363.733 63.9358 382.971 27.8037C385.461 23.1263 389.581 36.9429 390.658 41.7969C397.303 71.7501 397.85 102.288 400.074 132.42C402.209 161.334 404.329 190.21 408.722 219.045C411.67 238.395 410.868 259.258 417.178 278.35C426.109 305.371 431.556 223.96 439.47 196.834C455.87 140.629 487.777 87.7145 532.291 37.0215C535.376 33.5087 540.195 23.1772 546.897 20.9181C556.941 17.5323 555.391 33.4775 558.043 40.02C581.971 99.0553 585.14 160.641 585.14 221.044C585.14 234.372 584.386 247.534 582.449 260.803C581.583 266.737 583.502 266.342 585.14 260.136C600.774 200.909 600.175 140.752 614.543 81.4445C618.61 64.6565 623.22 47.8323 628.379 31.1354C630.979 22.7213 631.866 26.3208 632.799 33.5787C640.419 92.8235 646.684 151.966 652.786 211.271C654.822 231.061 657.665 250.851 662.779 270.465C663.695 273.978 665.148 284.699 670.466 275.685C699.46 226.535 705.329 173.423 724.275 122.869C737.837 86.6816 757.285 51.2596 785.771 18.0306C787.691 15.7909 794.571 5.0497 799.608 4.03732C807.033 2.54474 822.993 46.306 823.63 48.0162C842.803 99.5052 855.03 151.766 870.713 203.608C876.096 221.402 882.192 239.125 887.625 256.916C889.76 263.91 892.2 280.974 901.846 276.573C908.439 273.565 906.987 252.129 907.611 248.809C913.981 214.887 923.129 181.091 934.708 147.635C949.564 104.708 968.114 59.7871 996.012 18.9191C996.553 18.1264 1002.52 5.68754 1005.24 11.5892C1013.18 28.8612 1016.69 47.2604 1020.99 64.897C1035.44 124.145 1039.81 184.04 1058.85 242.922C1062.46 254.079 1066.32 265.145 1069.42 276.351C1072.18 286.309 1074.97 282.33 1076.34 273.908C1086.36 212.409 1102.79 149.822 1128.23 89.7739C1134.66 74.5905 1142.77 59.6595 1151.67 44.9066C1152.24 43.9619 1160.22 26.5867 1163.59 33.5787C1173.77 54.6798 1175.43 78.1766 1180.88 99.7691C1189.74 134.854 1197.98 170.106 1209.52 204.941C1214.49 219.949 1221.2 234.325 1230.08 248.697C1234.54 255.906 1238.52 269.663 1248.53 275.24C1258.86 280.995 1258.38 259.601 1261.21 251.474C1272.93 217.869 1284.24 184.216 1290.23 150.078C1297.02 111.467 1297.73 72.8577 1313.1 34.9114C1313.39 34.1942 1317 22.5948 1318.68 29.3585C1326.21 59.8479 1330.15 90.735 1336.55 121.314C1347.63 174.32 1365.1 226.261 1380.75 278.794C1381.56 281.537 1386.76 288.858 1387.67 286.124C1396.34 259.872 1391.57 230.84 1393.05 204.274C1396.01 150.881 1396.15 95.7503 1418.41 43.5739C1419.99 39.8828 1424.7 29.2869 1425.91 33.0234C1433.29 55.7574 1437.91 79.2438 1442.24 102.212C1453.73 163.038 1459.98 223.704 1479.33 284.014C1483.11 295.792 1487.62 307.507 1492.79 319.108C1497.52 329.749 1498.92 307.665 1499.13 306.781C1515.98 236.361 1531.27 166.681 1567.54 98.5474C1568.53 96.6923 1572.29 101.474 1573.31 103.323C1581.15 117.524 1587.11 131.835 1591.56 146.524C1597.48 166.04 1603.08 185.614 1608.67 205.163C1611.6 215.42 1611.56 228.518 1619.43 238.147C1620.97 240.037 1623.29 234.451 1623.66 232.372C1625.95 219.486 1629.27 206.692 1633.27 193.946C1636.87 182.479 1641.4 171.139 1645.57 159.74C1647.27 155.065 1648.17 150.946 1654.6 157.075C1671.24 172.944 1681.61 190.473 1701.68 205.274C1709.37 210.94 1729.68 196.975 1734.93 194.168C1752.2 184.928 1756.51 189.265 1772.4 196.611C1782.55 201.305 1810.36 195.057 1821.98 195.057C1839.47 195.057 1854.52 194.356 1871.18 191.503C1877.87 190.357 1885.99 191.059 1892.9 191.059C1901.72 191.059 1902.24 187.06 1910 187.06" stroke="white" stroke-width="7" stroke-linecap="round"/>
</svg>
