<svg width="420" height="420" viewBox="0 0 420 420" fill="none" xmlns="http://www.w3.org/2000/svg">
<path d="M0 100C0 44.7715 44.7715 0 100 0C155.228 0 200 44.7715 200 100V200H100C44.7715 200 0 155.228 0 100Z" fill="white"/>
<path d="M110 265C110 240.147 130.147 220 155 220H200V265C200 289.853 179.853 310 155 310C130.147 310 110 289.853 110 265Z" fill="white"/>
<path d="M220 155C220 130.147 240.147 110 265 110C289.853 110 310 130.147 310 155C310 179.853 289.853 200 265 200H220V155Z" fill="white"/>
<path d="M220 220H320C375.228 220 420 264.772 420 320C420 375.228 375.228 420 320 420C264.772 420 220 375.228 220 320V220Z" fill="white"/>
</svg>
