<svg width="2002" height="753" viewBox="0 0 2002 753" fill="none" xmlns="http://www.w3.org/2000/svg">
<path d="M2001 620.127C1997.29 618.63 1991.15 617.133 1987.43 616.946C1983.72 616.572 1977.58 618.443 1973.86 621.062C1970.15 623.494 1964.01 629.293 1960.3 633.783C1956.58 638.273 1950.44 639.583 1946.73 636.402C1943.02 633.409 1938.3 622.746 1936.3 612.83L1930.16 582.711C1928.16 572.795 1924.59 556.519 1922.31 546.791L1917.31 525.464C1915.02 515.549 1910.03 502.079 1906.31 495.344C1902.6 488.61 1896.46 483.933 1892.75 484.868C1889.03 485.803 1882.89 485.99 1879.18 485.242C1875.46 484.494 1869.75 476.075 1866.47 466.721L1864.75 461.857C1861.47 452.503 1855.76 439.221 1852.04 432.299C1848.33 425.377 1842.19 418.829 1838.47 417.519C1834.76 416.397 1828.62 419.577 1824.91 425.003C1821.19 430.241 1815.34 442.214 1811.77 451.381L1810.91 453.626C1807.48 462.793 1801.49 474.204 1797.77 479.069C1794.06 483.745 1787.92 485.429 1784.2 482.623C1780.49 479.817 1774.35 481.875 1770.64 487.113C1766.92 492.351 1761.35 504.324 1758.21 513.678L1755.93 520.413C1752.79 529.954 1747.22 545.108 1743.5 554.087V554.275C1739.79 563.441 1733.79 567.37 1730.08 563.254C1726.36 559.139 1720.22 552.591 1716.51 548.849C1712.8 545.108 1706.66 547.353 1702.94 553.713C1699.23 560.074 1693.52 573.17 1690.37 582.524L1688.66 587.575C1685.38 596.929 1679.81 609.837 1676.09 616.198C1672.38 622.559 1666.24 624.429 1662.53 620.501C1658.81 616.385 1653.1 605.347 1649.96 595.993L1648.24 590.942C1644.96 581.588 1640.39 565.873 1637.82 556.145L1633.39 538.934C1630.82 529.206 1626.39 513.491 1623.25 503.95L1620.97 496.841C1617.82 487.3 1612.4 476.075 1608.68 471.772C1604.97 467.47 1598.83 467.844 1595.12 472.708C1591.4 477.572 1585.98 489.358 1583.12 498.899L1579.98 509.375C1577.12 518.916 1571.69 530.515 1567.98 535.192C1564.27 539.869 1558.13 539.121 1554.41 533.883C1550.7 528.458 1544.56 524.342 1540.85 524.716C1537.13 525.09 1530.99 532.012 1527.28 540.431C1523.56 548.662 1518.28 563.441 1515.42 572.982L1512.14 584.581C1509.28 594.122 1504.14 609.463 1500.57 618.63L1500.14 619.565C1496.57 628.732 1490.57 634.157 1486.86 631.725C1483.15 629.293 1477.01 626.861 1473.29 626.3C1469.58 625.739 1463.44 619.565 1459.73 612.456C1456.01 605.347 1450.87 591.503 1448.44 581.775L1444.02 564.751C1441.45 555.023 1437.45 538.934 1435.02 529.206L1430.31 509.75C1427.88 500.021 1422.88 489.919 1419.17 487.487C1415.45 485.055 1409.31 478.133 1405.6 471.96C1401.89 465.786 1396.89 452.877 1394.46 442.962L1389.75 424.254C1387.32 414.526 1382.46 398.811 1379.18 389.645L1378.04 386.651C1374.61 377.297 1368.75 373.556 1365.04 378.046C1361.33 382.536 1356.33 394.134 1353.9 404.05L1349.19 422.758C1346.76 432.486 1341.76 441.84 1338.05 443.336C1334.33 444.833 1328.19 451.007 1324.48 456.993C1320.77 462.98 1315.91 475.888 1313.77 485.803L1308.2 510.685C1306.06 520.6 1302.49 536.689 1300.49 546.604L1294.49 575.227C1292.35 585.143 1287.63 595.245 1283.92 597.677C1280.21 600.109 1275.64 593.748 1273.64 583.833L1267.07 549.785C1265.21 539.869 1260.5 532.573 1256.78 533.509C1253.07 534.631 1246.93 532.199 1243.22 528.458C1239.5 524.529 1233.65 513.865 1230.22 504.511L1229.08 501.518C1225.65 492.164 1220.37 476.824 1217.37 467.47L1214.8 459.425C1211.8 449.884 1206.23 436.789 1202.51 430.054C1198.8 423.506 1192.66 411.72 1188.95 404.237C1185.23 396.754 1179.09 394.134 1175.38 398.624C1171.67 403.114 1166.95 415.087 1164.81 425.003L1158.95 452.877C1156.81 462.793 1153.81 479.069 1152.24 489.171L1144.67 536.128C1143.1 546.23 1139.53 562.319 1136.82 572.047L1132.96 586.078C1130.25 595.806 1126.82 595.432 1125.25 585.33L1117.54 536.315C1115.97 526.213 1113.54 509.75 1112.11 499.647L1103.68 438.659C1102.26 428.557 1099.83 411.907 1098.4 401.805L1090.4 348.861C1088.83 338.759 1086.26 322.296 1084.55 312.194L1077.12 268.23C1075.41 258.128 1071.98 242.039 1069.55 232.124L1064.98 214.164C1062.55 204.436 1057.41 198.636 1053.7 201.443C1049.99 204.249 1045.99 214.725 1044.7 225.015L1035.7 299.285C1034.42 309.387 1031.56 325.85 1029.42 335.766L1023.99 359.338C1021.71 369.253 1016.85 378.42 1013.14 379.729C1009.43 381.039 1003.29 387.025 999.572 393.012C995.859 398.999 991.717 412.281 990.289 422.383L981.72 486.365C980.292 496.467 978.435 513.117 977.435 523.406L967.438 628.919C966.438 639.209 962.582 642.576 958.869 636.589C955.156 630.603 949.015 623.868 945.302 621.623C941.588 619.378 937.018 609.276 935.162 599.361L928.449 562.88C926.593 552.965 924.165 536.315 923.165 526.213L913.454 432.299C912.454 422.009 910.454 405.546 909.026 395.257L900.6 333.521C899.172 323.418 895.03 308.639 891.317 300.782C887.604 292.924 881.463 281.7 877.749 275.713C874.036 269.727 869.752 256.631 868.038 246.529L860.326 198.262C858.755 188.16 856.47 171.697 855.185 161.408L848.472 84.705C847.33 74.6027 844.759 57.9526 843.045 48.0374L836.047 9.12488C834.19 -0.977416 829.763 -1.72573 826.05 7.25408C822.337 16.2339 817.338 31.7615 815.053 41.4896L810.055 62.4425C807.77 72.3577 802.771 76.0993 799.058 70.8611C795.344 65.6229 789.203 55.7077 785.49 48.7857C781.777 41.8638 775.636 40.9284 771.923 46.7279C768.209 52.5273 763.925 65.4358 762.497 75.5381L754.356 131.101C752.928 141.203 750.929 157.853 750.072 168.142L739.789 283.945C738.932 294.234 737.504 310.884 736.647 321.173L726.221 448.762C725.364 459.051 723.222 475.514 721.509 485.616L714.368 526.587C712.654 536.689 708.084 545.108 704.371 545.295C700.657 545.482 694.516 540.618 690.803 534.444C687.09 528.27 680.949 530.141 677.235 538.934C673.522 547.727 667.381 558.39 663.668 562.88C659.955 567.37 655.67 562.88 654.242 552.778L645.959 495.532C644.53 485.429 642.531 468.779 641.388 458.677L631.677 364.015C630.677 353.725 628.963 337.075 627.821 326.973L618.252 236.052C617.11 225.95 615.253 209.3 613.825 199.011L605.113 133.346C603.828 123.243 600.4 107.155 597.544 97.4264L594.402 87.137C591.546 77.596 586.69 77.4089 583.548 86.9499L581.263 94.059C578.121 103.6 574.408 119.502 572.837 129.604L565.125 179.18C563.554 189.282 560.84 205.745 559.126 215.848L551.843 259.437C550.129 269.54 546.273 285.441 543.131 294.982L540.846 302.278C537.847 311.819 532.277 320.238 528.564 321.361C524.85 322.296 518.709 324.167 514.996 325.476C511.283 326.786 505.142 329.966 501.428 332.772C497.715 335.392 491.574 341.939 487.861 347.178C484.148 352.416 478.292 364.202 474.865 373.556L474.008 375.988C470.58 385.155 465.724 400.869 463.297 410.597L458.726 428.557C456.299 438.285 451.586 454 448.301 463.354L446.73 468.031C443.445 477.385 437.732 478.32 434.019 469.902C430.306 461.483 424.165 451.381 420.452 447.265C416.738 443.149 410.597 444.272 406.884 450.071C403.171 455.684 398.172 468.405 395.744 478.32L390.889 498.338C388.461 508.066 385.033 524.342 383.177 534.257L376.607 569.054C374.75 578.969 371.037 595.058 368.324 604.786L364.468 619.004C361.754 628.732 356.756 629.106 353.185 619.939L352.614 618.256C349.043 609.089 344.331 593.561 342.045 583.646L336.904 561.758C334.619 551.842 330.477 535.941 327.621 526.4L324.193 514.427C321.48 504.886 316.053 493.099 312.34 488.423C308.626 483.746 302.485 484.868 298.772 490.855C295.059 496.841 288.918 504.885 285.205 508.44C281.491 511.995 275.35 508.814 271.637 501.518C267.924 494.035 262.068 480.378 258.498 471.211L257.641 468.966C254.213 459.799 248.215 447.826 244.502 442.401C240.789 436.976 234.648 433.982 230.934 435.666C227.221 437.35 221.08 442.401 217.367 446.704C213.654 451.007 207.512 456.619 203.799 459.238C200.086 461.857 193.945 465.038 190.232 466.534C186.518 468.031 180.377 469.34 176.664 469.34C172.951 469.34 166.81 467.844 163.097 465.973C159.383 464.102 153.242 460.735 149.529 458.303C145.816 455.871 139.675 460.548 135.961 468.592C132.248 476.637 127.392 491.229 125.107 501.144L119.68 525.09C117.395 535.005 112.682 550.533 109.255 559.7L108.541 561.571C104.97 570.737 99.1148 576.35 95.4016 574.105C91.6884 571.86 85.8329 562.319 82.4053 552.965L81.4056 550.159C77.978 540.805 72.1225 531.077 68.4093 528.458C64.6961 525.838 58.555 528.832 54.8417 535.38C51.1285 541.74 45.7015 554.836 42.988 564.377L39.846 575.227C36.9897 584.768 32.4196 600.483 29.7061 610.211L26.2785 622.371C23.565 632.1 18.2808 646.131 14.5675 653.801C10.8543 661.471 4.71322 666.335 0.999991 664.839" stroke="white" stroke-width="2" stroke-miterlimit="10"/>
<path d="M2001 706.018C1997.29 704.521 1991.15 703.025 1987.43 702.838C1983.72 702.463 1977.58 704.334 1973.86 706.953C1970.15 709.385 1964.01 715.185 1960.3 719.675C1956.58 724.165 1950.44 725.474 1946.73 722.294C1943.02 719.301 1938.3 708.637 1936.3 698.722L1930.16 668.602C1928.16 658.687 1924.59 642.411 1922.31 632.683L1917.31 611.356C1915.02 601.44 1910.03 587.971 1906.31 581.236C1902.6 574.501 1896.46 569.824 1892.75 570.759C1889.03 571.695 1882.89 571.882 1879.18 571.134C1875.46 570.385 1869.75 561.967 1866.47 552.613L1864.75 547.749C1861.47 538.395 1855.76 525.112 1852.04 518.19C1848.33 511.268 1842.19 504.72 1838.47 503.411C1834.76 502.288 1828.62 505.469 1824.91 510.894C1821.19 516.132 1815.34 528.105 1811.77 537.272L1810.91 539.517C1807.48 548.684 1801.49 560.096 1797.77 564.96C1794.06 569.637 1787.92 571.321 1784.2 568.514C1780.49 565.708 1774.35 567.766 1770.64 573.004C1766.92 578.243 1761.35 590.216 1758.21 599.57L1755.93 606.304C1752.79 615.846 1747.22 630.999 1743.5 639.979V640.166C1739.79 649.333 1733.79 653.261 1730.08 649.146C1726.36 645.03 1720.22 638.482 1716.51 634.741C1712.8 630.999 1706.66 633.244 1702.94 639.605C1699.23 645.965 1693.52 659.061 1690.37 668.415L1688.66 673.466C1685.38 682.82 1679.81 695.729 1676.09 702.089C1672.38 708.45 1666.24 710.321 1662.53 706.392C1658.81 702.276 1653.1 691.239 1649.96 681.885L1648.24 676.833C1644.96 667.48 1640.39 651.765 1637.82 642.037L1633.39 624.825C1630.82 615.097 1626.39 599.383 1623.25 589.841L1620.97 582.732C1617.82 573.191 1612.4 561.967 1608.68 557.664C1604.97 553.361 1598.83 553.735 1595.12 558.599C1591.4 563.463 1585.98 575.249 1583.12 584.79L1579.98 595.267C1577.12 604.808 1571.69 616.407 1567.98 621.084C1564.27 625.761 1558.13 625.012 1554.41 619.774C1550.7 614.349 1544.56 610.233 1540.85 610.607C1537.13 610.981 1530.99 617.903 1527.28 626.322C1523.56 634.554 1518.28 649.333 1515.42 658.874L1512.14 670.473C1509.28 680.014 1504.14 695.354 1500.57 704.521L1500.14 705.457C1496.57 714.624 1490.57 720.049 1486.86 717.617C1483.15 715.185 1477.01 712.753 1473.29 712.191C1469.58 711.63 1463.44 705.457 1459.73 698.348C1456.01 691.239 1450.87 677.395 1448.44 667.667L1444.02 650.642C1441.45 640.914 1437.45 624.825 1435.02 615.097L1430.31 595.641C1427.88 585.913 1422.88 575.81 1419.17 573.378C1415.45 570.946 1409.31 564.024 1405.6 557.851C1401.89 551.677 1396.89 538.769 1394.46 528.854L1389.75 510.146C1387.32 500.417 1382.46 484.703 1379.18 475.536L1378.04 472.543C1374.61 463.189 1368.75 459.447 1365.04 463.937C1361.33 468.427 1356.33 480.026 1353.9 489.941L1349.19 508.649C1346.76 518.377 1341.76 527.731 1338.05 529.228C1334.33 530.724 1328.19 536.898 1324.48 542.884C1320.77 548.871 1315.91 561.78 1313.77 571.695L1308.2 596.576C1306.06 606.492 1302.49 622.58 1300.49 632.496L1294.49 661.119C1292.35 671.034 1287.63 681.136 1283.92 683.568C1280.21 686 1275.64 679.64 1273.64 669.724L1267.07 635.676C1265.21 625.761 1260.5 618.465 1256.78 619.4C1253.07 620.523 1246.93 618.091 1243.22 614.349C1239.5 610.42 1233.65 599.757 1230.22 590.403L1229.08 587.409C1225.65 578.055 1220.37 562.715 1217.37 553.361L1214.8 545.317C1211.8 535.775 1206.23 522.68 1202.51 515.945C1198.8 509.397 1192.66 497.611 1188.95 490.128C1185.23 482.645 1179.09 480.026 1175.38 484.516C1171.67 489.006 1166.95 500.979 1164.81 510.894L1158.95 538.769C1156.81 548.684 1153.81 564.96 1152.24 575.062L1144.67 622.019C1143.1 632.121 1139.53 648.21 1136.82 657.938L1132.96 671.969C1130.25 681.698 1126.82 681.323 1125.25 671.221L1117.54 622.206C1115.97 612.104 1113.54 595.641 1112.11 585.539L1103.68 524.551C1102.26 514.448 1099.83 497.798 1098.4 487.696L1090.4 434.753C1088.83 424.65 1086.26 408.187 1084.55 398.085L1077.12 354.121C1075.41 344.019 1071.98 327.93 1069.55 318.015L1064.98 300.055C1062.55 290.327 1057.41 284.528 1053.7 287.334C1049.99 290.14 1045.99 300.617 1044.7 310.906L1035.7 385.177C1034.42 395.279 1031.56 411.742 1029.42 421.657L1023.99 445.229C1021.71 455.144 1016.85 464.311 1013.14 465.621C1009.43 466.93 1003.29 472.917 999.572 478.903C995.859 484.89 991.717 498.173 990.289 508.275L981.72 572.256C980.292 582.358 978.435 599.008 977.435 609.298L967.438 714.811C966.438 725.1 962.582 728.467 958.869 722.481C955.156 716.494 949.015 709.759 945.302 707.514C941.588 705.27 937.018 695.167 935.162 685.252L928.449 648.772C926.593 638.856 924.165 622.206 923.165 612.104L913.454 518.19C912.454 507.901 910.454 491.438 909.026 481.148L900.6 419.412C899.172 409.31 895.03 394.531 891.317 386.673C887.604 378.816 881.463 367.591 877.749 361.605C874.036 355.618 869.752 342.522 868.038 332.42L860.326 284.154C858.755 274.051 856.47 257.588 855.185 247.299L848.472 170.596C847.33 160.494 844.759 143.844 843.045 133.929L836.047 95.0162C834.19 84.9139 829.763 84.1656 826.05 93.1454C822.337 102.125 817.338 117.653 815.053 127.381L810.055 148.334C807.77 158.249 802.771 161.991 799.058 156.752C795.344 151.514 789.203 141.599 785.49 134.677C781.777 127.755 775.636 126.82 771.923 132.619C768.209 138.419 763.925 151.327 762.497 161.429L754.356 216.992C752.928 227.094 750.929 243.744 750.072 254.034L739.789 369.836C738.932 380.125 737.504 396.775 736.647 407.065L726.221 534.653C725.364 544.942 723.222 561.405 721.509 571.508L714.368 612.478C712.654 622.58 708.084 630.999 704.371 631.186C700.657 631.373 694.516 626.509 690.803 620.335C687.09 614.162 680.949 616.033 677.235 624.825C673.522 633.618 667.381 644.282 663.668 648.772C659.955 653.261 655.67 648.772 654.242 638.669L645.959 581.423C644.53 571.321 642.531 554.671 641.388 544.568L631.677 449.906C630.677 439.617 628.963 422.967 627.821 412.864L618.252 321.944C617.11 311.841 615.253 295.191 613.825 284.902L605.113 219.237C603.828 209.135 600.4 193.046 597.544 183.318L594.402 173.028C591.546 163.487 586.69 163.3 583.548 172.841L581.263 179.95C578.121 189.491 574.408 205.393 572.837 215.495L565.125 265.071C563.554 275.174 560.84 291.637 559.126 301.739L551.843 345.329C550.129 355.431 546.273 371.333 543.131 380.874L540.846 388.17C537.847 397.711 532.277 406.129 528.564 407.252C524.85 408.187 518.709 410.058 514.996 411.368C511.283 412.677 505.142 415.858 501.428 418.664C497.715 421.283 491.574 427.831 487.861 433.069C484.148 438.307 478.292 450.093 474.865 459.447L474.008 461.879C470.58 471.046 465.724 486.761 463.297 496.489L458.726 514.448C456.299 524.177 451.586 539.891 448.301 549.245L446.73 553.922C443.445 563.276 437.732 564.212 434.019 555.793C430.306 547.374 424.165 537.272 420.452 533.156C416.738 529.041 410.597 530.163 406.884 535.963C403.171 541.575 398.172 554.296 395.744 564.212L390.889 584.229C388.461 593.957 385.033 610.233 383.177 620.148L376.607 654.945C374.75 664.86 371.037 680.949 368.324 690.677L364.468 704.895C361.754 714.624 356.756 714.998 353.185 705.831L352.614 704.147C349.043 694.98 344.331 679.453 342.045 669.537L336.904 647.649C334.619 637.734 330.477 621.832 327.621 612.291L324.193 600.318C321.48 590.777 316.053 578.991 312.34 574.314C308.626 569.637 302.485 570.759 298.772 576.746C295.059 582.732 288.918 590.777 285.205 594.331C281.491 597.886 275.35 594.706 271.637 587.409C267.924 579.926 262.068 566.269 258.498 557.103L257.641 554.858C254.213 545.691 248.215 533.718 244.502 528.292C240.789 522.867 234.648 519.874 230.934 521.557C227.221 523.241 221.08 528.292 217.367 532.595C213.654 536.898 207.512 542.51 203.799 545.13C200.086 547.749 193.945 550.929 190.232 552.426C186.518 553.922 180.377 555.232 176.664 555.232C172.951 555.232 166.81 553.735 163.097 551.864C159.383 549.993 153.242 546.626 149.529 544.194C145.816 541.762 139.675 546.439 135.961 554.483C132.248 562.528 127.392 577.12 125.107 587.035L119.68 610.981C117.395 620.897 112.682 636.424 109.255 645.591L108.541 647.462C104.97 656.629 99.1148 662.241 95.4016 659.996C91.6884 657.751 85.8329 648.21 82.4053 638.856L81.4056 636.05C77.978 626.696 72.1225 616.968 68.4093 614.349C64.6961 611.73 58.555 614.723 54.8417 621.271C51.1285 627.632 45.7015 640.727 42.988 650.268L39.846 661.119C36.9897 670.66 32.4196 686.375 29.7061 696.103L26.2785 708.263C23.565 717.991 18.2808 732.022 14.5675 739.692C10.8543 747.362 4.71322 752.227 0.999991 750.73" stroke="white" stroke-width="2" stroke-miterlimit="10"/>
</svg>
