<svg width="2002" height="752" viewBox="0 0 2002 752" fill="none" xmlns="http://www.w3.org/2000/svg">
<path d="M5.05225 721.389C8.75425 719.686 14.8768 716.494 18.5788 714.578C22.2808 712.45 28.1186 702.234 31.6782 691.805L32.3901 689.676C35.9497 679.247 40.7908 661.582 43.3537 650.515L47.7676 631.147C50.3306 620.079 55.0292 602.414 58.4465 591.772L59.7279 587.729C63.1452 577.087 68.8405 567.935 72.5425 567.297C76.2445 566.658 82.3671 572.192 86.0691 579.428C89.7711 586.664 95.8936 593.475 99.5956 594.114C103.298 594.752 109.42 587.303 113.122 577.513C116.824 567.722 121.95 550.483 124.513 539.415L128.642 521.75C131.205 510.683 136.331 494.294 140.033 485.355C143.735 476.416 149.857 470.883 153.559 473.224C157.261 475.565 163.384 479.822 167.086 483.014C170.788 485.994 176.91 490.463 180.612 492.804C184.314 495.146 190.437 498.338 194.139 500.041C197.841 501.744 203.964 504.51 207.666 506.213C211.368 507.916 217.49 511.321 221.192 513.662C224.894 516.003 231.017 524.091 234.719 531.753C238.421 539.202 243.974 554.314 246.964 565.168L249.384 573.894C252.374 584.749 257.215 602.414 260.063 613.269L263.196 625.4C266.043 636.255 271.454 652.856 275.156 662.434C278.858 671.798 284.98 678.822 288.682 677.97C292.384 677.119 298.365 667.754 301.924 657.538L302.351 656.474C305.911 646.045 311.749 629.019 315.166 618.377L316.163 615.61C319.58 605.181 325.418 593.688 329.12 590.283C332.822 586.877 338.944 587.729 342.646 592.198C346.348 596.668 352.471 604.755 356.173 610.076C359.875 615.397 365.855 611.566 369.557 601.137L369.699 600.712C373.401 590.283 379.097 573.256 382.514 562.614L383.653 558.996C387.07 548.354 392.766 539.841 396.468 539.841C400.17 539.841 406.292 547.929 409.994 557.932C413.696 567.722 419.107 584.749 422.097 595.604L424.802 605.394C427.792 616.248 433.203 631.785 436.905 640.086C440.607 648.386 446.729 647.535 450.431 637.958C454.133 628.593 458.974 611.566 461.11 600.286L466.806 570.489C468.941 559.209 472.359 540.692 474.352 529.412L480.474 495.358C482.468 484.078 486.027 465.562 488.163 454.494L493.431 427.89C495.71 416.61 499.839 398.519 502.829 387.664L505.819 376.597C508.667 365.742 514.077 352.121 517.779 346.374C521.481 340.628 526.607 344.884 529.028 356.165L533.442 375.533C536.004 386.6 539.706 404.904 541.842 416.184L547.538 446.194C549.673 457.474 553.945 457.9 557.077 447.045L559.356 439.17C562.488 428.316 565.905 410.225 566.902 398.519L576.442 293.379C577.438 281.885 579.432 262.943 580.713 251.237L589.541 172.701C590.823 161.208 594.525 160.357 597.799 170.999L599.366 176.107C602.64 186.748 606.058 205.052 607.054 216.545L617.164 341.905C618.16 353.611 619.584 372.553 620.581 384.259L630.69 514.514C631.545 526.219 633.538 544.949 635.104 556.442L643.078 616.461C644.644 627.954 648.915 642.427 652.617 648.386C656.319 654.559 662.442 666.903 666.144 675.629C669.846 684.568 675.969 689.889 679.671 687.761C683.373 685.42 689.495 682.227 693.197 680.524C696.899 678.822 703.022 672.862 706.724 667.329C710.426 661.795 714.982 647.961 716.975 636.468L723.383 598.583C725.376 587.303 727.654 568.361 728.508 556.868L738.618 427.89C739.472 416.184 741.038 397.242 741.893 385.536L752.287 244.852C753.141 233.146 754.85 214.204 756.131 202.711L764.959 123.962C766.24 112.469 769.942 94.1654 773.217 83.5237L774.926 77.7771C778.201 67.1354 783.754 59.4734 787.456 60.7504C791.158 62.0274 797.28 65.2199 800.982 67.9868C804.684 70.7536 810.807 65.4327 814.509 56.068C818.211 46.7033 824.333 37.7642 828.035 36.0616C831.737 34.3589 836.294 42.2338 838.145 53.514L844.694 92.8884C846.545 104.169 849.251 122.898 850.674 134.391L859.075 202.498C860.499 213.991 863.062 232.721 864.771 244.214L871.89 291.463C873.598 302.956 877.728 320.834 881.002 331.476L882.426 335.945C885.701 346.587 890.827 364.04 893.817 374.894L896.665 385.323C899.655 396.178 903.072 414.481 904.496 425.974L912.897 495.997C914.32 507.49 916.314 526.432 917.595 537.925L926.708 627.742C927.847 639.235 930.695 657.964 932.83 669.244L938.241 696.7C940.519 707.98 945.36 716.706 949.062 716.281C952.764 715.855 958.887 715.642 962.589 715.642C966.291 715.855 970.278 706.49 971.417 694.784L980.814 599.222C981.953 587.729 984.089 568.786 985.655 557.293L993.486 500.466C995.052 488.973 999.324 472.372 1003.03 463.433C1006.73 454.494 1012.85 444.704 1016.55 441.511C1020.25 438.319 1026.09 427.039 1029.37 416.61L1030.51 412.992C1033.92 402.35 1038.48 384.685 1040.9 373.404L1046.03 348.716C1048.3 337.435 1053.29 329.773 1056.99 331.476C1060.69 333.179 1066.39 343.182 1069.66 353.824L1071.23 359.144C1074.5 369.786 1079.34 387.451 1081.91 398.519L1085.75 414.481C1088.46 425.549 1092.73 443.64 1095.29 454.707L1099.42 472.372C1101.98 483.44 1105.97 501.531 1108.39 512.811L1113.23 535.371C1115.65 546.439 1119.64 564.743 1122.34 575.597L1126.33 592.198C1128.89 603.266 1134.02 603.691 1137.72 593.475L1138.01 592.624C1141.57 582.195 1146.83 564.743 1149.54 553.888L1153.1 539.628C1155.8 528.561 1161.07 514.726 1164.77 508.554C1168.48 502.382 1174.6 503.872 1178.3 511.534C1182 519.196 1187.41 534.52 1190.26 545.375L1193.25 556.868C1196.1 567.722 1201.51 583.046 1205.21 590.921C1208.91 598.796 1215.04 609.863 1218.74 615.397C1222.44 620.931 1228.56 628.167 1232.27 631.36C1235.97 634.552 1242.09 636.255 1245.79 634.978C1249.49 633.701 1255.62 627.954 1259.32 621.782C1263.02 615.823 1269.14 616.248 1272.84 622.633C1276.55 629.231 1281.67 643.491 1284.38 654.559L1288.36 671.373C1290.93 682.44 1295.77 682.653 1299.04 672.011L1300.61 666.903C1303.88 656.261 1308.01 638.17 1309.72 626.89L1316.84 580.067C1318.55 568.574 1321.83 550.057 1323.96 538.99L1329.37 511.534C1331.65 500.254 1336.06 482.376 1339.34 471.734L1340.76 467.051C1344.04 456.41 1348.59 438.532 1351.01 427.464L1356.14 402.775C1358.42 391.495 1363.4 376.597 1367.1 369.36C1370.81 362.124 1376.93 362.763 1380.63 370.425C1384.33 378.087 1389.6 393.411 1392.31 404.478L1396.01 419.589C1398.71 430.657 1403.7 448.322 1406.97 458.751L1408.25 462.582C1411.67 473.224 1416.94 490.463 1420.21 501.105L1421.92 506.852C1425.2 517.493 1429.33 535.584 1431.32 546.864L1437.73 583.898C1439.72 595.178 1443.85 613.269 1446.98 624.123L1449.12 631.147C1452.25 641.789 1457.8 653.92 1461.5 657.964C1465.21 662.008 1471.33 664.775 1475.03 664.136C1478.73 663.498 1484.86 662.221 1488.56 661.582C1492.26 660.731 1498.38 653.92 1502.08 646.045C1505.79 638.383 1511.91 627.529 1515.61 622.208C1519.31 616.674 1525.44 613.482 1529.14 614.759C1532.84 616.036 1538.96 622.846 1542.66 629.87C1546.37 636.893 1552.49 648.599 1556.19 655.836C1559.89 663.072 1566.01 666.69 1569.72 663.923C1573.42 660.944 1579.26 650.089 1582.82 639.66L1583.53 637.319C1586.95 626.89 1592.93 610.715 1596.63 601.563C1600.33 592.411 1606.45 583.472 1610.15 581.769C1613.86 580.067 1619.98 584.962 1623.68 593.049C1627.38 600.924 1632.51 616.461 1634.93 627.742L1639.34 647.322C1641.91 658.39 1646.18 676.481 1648.88 687.335L1652.3 700.957C1655.01 711.811 1660.42 723.091 1664.12 725.645C1667.82 728.199 1673.94 724.581 1677.64 717.771C1681.35 710.747 1687.47 696.7 1691.17 686.271C1694.87 676.055 1701 662.434 1704.7 656.261C1708.4 650.089 1714.52 648.174 1718.22 652.005C1721.93 655.836 1728.05 662.008 1731.75 665.839C1735.45 669.457 1741.58 667.754 1745.28 662.008C1748.98 656.261 1754.96 643.066 1758.66 632.637L1758.8 632.424C1762.51 621.995 1768.49 605.394 1772.19 595.391C1775.89 585.387 1782.01 571.766 1785.71 564.955C1789.42 558.358 1795.54 544.949 1799.24 535.584C1802.94 526.007 1808.64 509.618 1811.91 498.977L1813.34 494.294C1816.61 483.653 1822.31 470.67 1826.01 465.136C1829.71 459.815 1835.83 458.964 1839.54 463.22C1843.24 467.477 1848.79 479.822 1851.78 490.676L1854.2 499.402C1857.19 510.257 1861.75 528.135 1864.17 539.202L1868.58 559.422C1871 570.489 1876.13 588.154 1879.83 598.37L1879.97 598.583C1883.67 609.012 1889.66 623.698 1893.36 631.36C1897.06 639.022 1903.18 647.535 1906.88 650.089C1910.59 652.643 1916.71 654.772 1920.41 654.984C1924.11 654.984 1930.23 657.538 1933.94 660.305C1937.64 663.285 1943.76 669.244 1947.46 673.714C1951.17 678.183 1957.29 676.481 1960.99 669.883C1964.69 663.285 1970.81 656.474 1974.52 654.559C1978.22 652.643 1984.34 656.9 1988.04 663.923C1991.74 670.947 1997.58 685.42 2001 695.849" stroke="white" stroke-width="2" stroke-miterlimit="10"/>
<path d="M1994.67 747.664C1990.97 737.235 1984.99 723.613 1981.29 717.228C1977.58 710.843 1971.46 707.225 1967.76 709.141C1964.06 711.056 1957.93 717.654 1954.23 723.826C1950.53 729.785 1944.41 729.573 1940.71 723.188C1937 716.803 1931.59 702.543 1928.6 691.688L1925.9 681.472C1922.91 670.617 1917.5 654.655 1913.8 645.929C1910.09 637.202 1903.97 628.476 1900.27 626.348C1896.57 624.22 1890.44 623.794 1886.74 625.284C1883.04 626.774 1876.92 626.348 1873.22 624.219C1869.51 622.091 1863.96 611.449 1860.97 600.808L1858.41 591.656C1855.42 580.801 1850.29 563.349 1847.02 552.707L1845.31 547.173C1842.03 536.532 1836.34 522.272 1832.64 515.674C1828.93 509.076 1822.81 503.968 1819.11 504.607C1815.41 505.245 1809.28 510.992 1805.58 517.589C1801.88 523.974 1795.76 532.062 1792.06 535.468C1788.35 538.873 1782.23 541.853 1778.53 541.853C1774.83 542.065 1768.85 550.792 1765.15 561.008L1764.86 561.646C1761.3 572.075 1756.18 589.528 1753.61 600.595L1749.48 618.899C1746.92 629.966 1742.36 647.844 1739.23 658.486L1736.95 666.361C1733.82 677.215 1728.27 686.793 1724.57 688.07C1720.86 689.347 1714.74 693.178 1711.04 696.796C1707.34 700.414 1701.21 705.948 1697.51 708.715C1693.81 711.695 1687.69 716.164 1683.99 718.718C1680.28 721.272 1674.16 722.762 1670.46 722.123C1666.76 721.485 1660.64 715.526 1656.93 709.141C1653.23 702.543 1647.68 688.496 1644.55 677.854L1642.55 671.043C1639.42 660.401 1633.87 647.418 1630.16 642.31C1626.46 637.202 1620.34 631.243 1616.64 629.115C1612.94 626.986 1606.81 624.219 1603.11 623.155C1599.41 622.091 1593.29 621.666 1589.59 622.304C1585.88 622.943 1579.76 627.838 1576.06 632.733C1572.36 637.841 1566.23 643.8 1562.53 645.929C1558.83 648.27 1552.71 642.949 1549.01 634.436C1545.3 625.922 1539.18 615.28 1535.48 610.598C1531.78 606.129 1525.65 605.916 1521.95 610.172C1518.25 614.429 1512.41 626.561 1509.14 637.202L1507.86 641.033C1504.44 651.675 1498.74 668.702 1495.18 679.131L1494.76 680.408C1491.2 690.837 1485.22 699.35 1481.52 699.35C1477.81 699.35 1471.69 699.776 1467.99 700.201C1464.29 700.84 1458.16 696.796 1454.46 691.262C1450.76 685.942 1445.35 672.533 1442.5 661.678L1439.37 649.76C1436.52 638.905 1432.54 620.601 1430.4 609.321L1424.56 577.396C1422.43 566.116 1417.73 550.792 1414.03 543.13C1410.32 535.68 1404.2 522.059 1400.5 513.12C1396.8 504.181 1391.67 487.793 1388.97 476.725L1385.12 460.55C1382.56 449.482 1377.29 433.307 1373.59 424.581C1369.89 415.855 1363.76 414.365 1360.06 421.388C1356.36 428.412 1351.38 443.31 1349.1 454.378L1344.11 478.215C1341.84 489.495 1336.85 504.181 1333.15 511.204C1329.45 518.228 1324.04 532.701 1321.05 543.555L1318.34 553.558C1315.35 564.413 1311.51 582.504 1309.8 593.997L1302.68 639.544C1300.97 651.037 1297.41 669.34 1294.85 680.408L1290.58 699.35C1288.01 710.418 1283.17 710.843 1279.9 700.201L1278.76 696.583C1275.34 685.942 1270.22 668.489 1267.37 657.635L1264.52 647.206C1261.53 636.351 1256.12 630.605 1252.42 634.223C1248.72 638.054 1242.59 639.118 1238.89 636.777C1235.19 634.436 1229.07 626.774 1225.37 619.537C1221.66 612.301 1215.54 600.169 1211.84 592.72C1208.14 585.271 1202.01 575.48 1198.31 571.011C1194.61 566.754 1188.49 556.964 1184.79 549.727C1181.08 542.491 1174.96 534.616 1171.26 532.701C1167.56 530.572 1161.43 536.106 1157.73 544.619C1154.03 553.133 1148.9 569.308 1146.34 580.376L1142.21 598.041C1139.65 609.108 1134.67 626.774 1131.25 637.202L1130.25 639.969C1126.84 650.398 1122.42 649.76 1120.57 638.479L1113.88 597.19C1112.03 585.909 1109.18 567.18 1107.61 555.687L1099.92 500.137C1098.36 488.644 1095.37 470.127 1093.37 458.634L1087.11 422.878C1085.12 411.598 1081.41 393.294 1078.71 382.227L1074.72 365.2C1072.16 354.133 1067.03 338.808 1063.19 331.146C1059.49 323.484 1053.36 322.633 1049.66 329.231C1045.96 335.829 1041.69 350.727 1040.12 362.22L1032.43 418.196C1030.87 429.689 1027.31 447.993 1024.46 458.847L1021.19 471.617C1018.34 482.472 1013.07 491.198 1009.37 490.772C1005.67 490.347 999.543 492.049 995.841 494.603C992.139 496.945 987.583 508.225 985.732 519.718L979.04 559.944C977.189 571.224 974.768 590.166 973.629 601.659L964.09 702.756C962.951 714.249 959.106 727.444 955.404 731.701C951.702 735.958 945.58 743.833 941.878 748.941C938.176 754.049 933.192 749.366 930.772 738.086L926.215 717.015C923.795 705.948 920.805 687.219 919.808 675.725L910.411 579.311C909.272 567.818 907.421 548.876 906.139 537.17L897.169 453.101C895.887 441.608 892.897 423.091 890.477 411.811L885.92 391.166C883.5 380.098 878.944 362.22 875.954 351.366L873.533 342.64C870.543 331.785 866.841 313.694 865.417 302.201L857.301 238.776C855.877 227.283 853.599 208.341 852.46 196.848L843.347 106.819C842.208 95.3258 839.788 76.3835 838.222 64.8905L833.096 13.8102C831.387 2.31711 827.116 -2.36525 823.414 3.59412C819.712 9.34065 814.443 23.1749 811.88 34.0295L808.178 49.5664C805.473 60.6338 800.347 68.7215 796.645 67.6573C792.943 66.5931 786.821 65.9546 783.119 66.1675C779.417 66.3803 774.148 75.745 771.443 86.5996L767.741 101.711C765.036 112.778 761.903 131.082 760.764 142.788L751.509 233.243C750.37 244.736 748.662 263.891 747.807 275.384L737.413 420.324C736.559 432.03 735.135 450.972 734.281 462.678L724.029 596.551C723.175 608.257 720.897 626.986 719.046 638.479L712.211 680.834C710.36 692.114 705.804 702.968 702.102 704.884C698.4 706.799 692.277 702.117 688.575 694.455C684.873 686.793 678.751 677.428 675.049 673.597C671.347 669.766 665.224 668.915 661.522 671.895C657.82 674.874 651.982 668.702 648.708 658.06L647.426 654.229C644.009 643.587 640.307 625.497 639.168 614.003L629.913 521.208C628.774 509.715 627.065 490.559 626.353 479.066L615.959 335.19C615.105 323.484 613.539 304.542 612.542 292.836L602.86 184.503C601.863 172.798 597.876 157.261 594.174 150.024C590.472 142.575 586.343 145.98 584.919 157.473L576.519 225.793C575.095 237.286 572.959 256.229 571.678 267.722L562.85 346.683C561.568 358.176 558.151 376.48 555.161 387.335L552.313 397.764C549.323 408.618 543.913 410.747 540.211 402.659C536.509 394.571 530.386 382.014 526.684 374.778C522.982 367.541 516.86 367.541 513.158 374.778C509.456 382.014 503.618 396.487 500.343 407.128L499.204 410.959C495.787 421.601 490.803 439.054 487.955 450.121L484.681 462.465C481.833 473.32 477.561 491.411 475.141 502.478L470.584 523.549C468.164 534.616 464.32 552.92 462.041 564.2L456.916 589.102C454.637 600.382 449.796 617.835 446.094 628.263L445.81 628.902C442.108 639.331 436.127 640.821 432.425 632.52C428.723 624.22 422.601 608.895 418.899 598.679C415.197 588.463 409.074 576.119 405.372 571.437C401.67 566.754 395.548 566.541 391.846 571.224C388.144 575.906 382.733 588.676 379.885 599.531L376.895 611.024C374.048 621.878 369.064 639.544 365.932 650.185L364.081 656.358C360.948 666.999 355.253 668.915 351.551 660.401C347.849 651.888 341.869 636.351 338.167 626.135L338.024 625.709C334.322 615.281 328.342 604.426 324.64 601.446C320.938 598.467 314.816 602.085 311.114 609.321C307.412 616.557 301.716 631.456 298.584 642.098L296.733 648.483C293.6 659.124 287.905 671.469 284.203 675.513C280.501 679.769 274.378 677.215 270.676 670.192C266.974 662.955 261.137 648.483 257.719 638.054L256.58 634.648C253.163 624.007 247.325 607.406 243.623 597.615C239.921 587.825 233.799 576.332 230.097 571.862C226.395 567.393 220.272 563.136 216.57 562.285C212.868 561.433 206.746 559.305 203.044 557.815C199.342 556.113 193.219 552.92 189.517 550.579C185.815 548.238 179.693 543.342 175.991 539.724C172.289 536.106 166.166 528.87 162.464 523.549C158.762 518.441 152.64 509.502 148.938 503.755C145.236 498.009 139.113 498.434 135.411 504.394C131.709 510.566 126.583 524.613 124.02 535.68L120.034 552.92C117.471 563.987 112.345 581.44 108.643 591.656C104.941 601.872 98.8182 608.895 95.1162 607.193C91.4142 605.49 85.4341 595.7 81.7321 585.271L81.5897 584.845C77.8877 574.416 71.9075 564.626 68.2055 562.923C64.5035 561.221 58.8082 568.457 55.5333 579.099L54.1095 583.994C50.8346 594.636 46.2783 612.514 44.0002 623.581L38.7319 649.334C36.4538 660.614 31.8975 678.492 28.6226 688.921L27.1988 693.816C23.9239 704.458 18.2285 714.249 14.5265 715.738C10.8245 717.228 4.702 721.059 1 724.252" stroke="white" stroke-width="2" stroke-miterlimit="10"/>
</svg>
